<svg width="112" height="179" viewBox="0 0 112 179" fill="none" xmlns="http://www.w3.org/2000/svg">
  <path d="M11.082 88.6498C11.082 88.6498 24.4884 66.4873 55.407 66.4873C84.2319 66.4873 99.732 88.6498 99.732 88.6498C99.732 88.6498 86.1801 110.813 55.407 110.812C26.7612 110.812 11.082 88.6498 11.082 88.6498Z" fill="white" fill-opacity="0.95"/>
  <path d="M110.812 121.894C110.812 148.67 90.0415 177.3 55.4062 177.3V110.812C55.4062 110.812 83.2175 112.19 99.7312 88.6499C108.153 99.9149 110.812 111.675 110.812 121.894Z" fill="white" fill-opacity="0.85"/>
  <path d="M3.8147e-06 121.894C3.8147e-06 148.67 20.771 177.3 55.4062 177.3V110.812C55.4062 110.812 29.4726 112.262 11.0813 88.6499C2.65942 99.9149 3.8147e-06 111.675 3.8147e-06 121.894Z" fill="white" fill-opacity="0.45"/>
  <path d="M6.72096e-06 55.4061C9.06185e-06 28.6295 20.771 -9.45806e-05 55.4063 -9.15527e-05L55.4063 66.4874C55.4063 66.4874 27.595 65.1102 11.0813 88.6499C2.65942 77.3849 5.82758e-06 65.6252 6.72096e-06 55.4061Z" fill="white" fill-opacity="0.85"/>
  <path d="M110.812 55.4062C110.813 28.6295 90.0415 -8.85248e-05 55.4063 -9.15527e-05L55.4063 66.4874C55.4063 66.4874 81.5638 65.1362 99.7312 88.6499C108.153 77.3849 110.812 65.6252 110.812 55.4062Z" fill="white" fill-opacity="0.45"/>
</svg>
